<svg width="495" height="177" viewBox="0 0 495 177" fill="none" xmlns="http://www.w3.org/2000/svg">
<path d="M0 177L70.2643 0H102.852L173.48 177H140.044L92.3128 49.9665C90.9398 46.4176 89.688 42.9897 88.5573 39.6828C87.4266 36.3759 86.4574 33.1094 85.6498 29.8831H84.3172C83.5095 33.19 82.5404 36.4969 81.4097 39.8038C80.3598 43.0301 79.1483 46.4176 77.7753 49.9665L29.4383 177H0ZM31.6189 134.776L40.3414 111.427L130.958 111.548L139.802 134.776H31.6189Z" fill="white"/>
<path d="M195.408 177V0.84689H262.522C284.894 0.84689 302.137 5.68626 314.251 15.365C326.446 25.0437 332.544 38.231 332.544 54.9269C332.544 71.6227 326.446 84.931 314.251 94.8517C302.056 104.772 284.813 109.733 262.522 109.733H226.542V177H195.408ZM226.542 86.5038H262.28C276.736 86.5038 286.872 83.5195 292.687 77.5509C298.502 71.5017 301.41 64.0007 301.41 55.0478C301.41 45.853 298.381 38.3923 292.324 32.6658C286.267 26.9392 276.252 24.0759 262.28 24.0759H226.542V86.5038ZM305.044 177L259.615 96.1825L293.414 95.2146L340.419 177H305.044Z" fill="white"/>
<path d="M340.055 24.4388V0.84689H495V24.4388H433.095V177H402.082V24.4388H340.055Z" fill="white"/>
</svg>
