<svg width="282" height="47" viewBox="0 0 282 47" fill="none" xmlns="http://www.w3.org/2000/svg">
<path fill-rule="evenodd" clip-rule="evenodd" d="M27.2715 46.7255C27.7316 46.9086 28.2324 47.0001 28.7737 47.0001C29.2676 47.0001 29.7413 46.9227 30.1946 46.7678C30.648 46.6058 31.0438 46.3699 31.3822 46.0601V43.2401H30.6615V45.7267C30.4391 45.897 30.2023 46.0258 29.951 46.1129C29.5924 46.2397 29.2101 46.303 28.8041 46.303C28.3711 46.303 27.9685 46.2291 27.5963 46.0812C27.2309 45.9263 26.9095 45.7116 26.6321 45.437C26.3614 45.1553 26.1483 44.8279 25.9926 44.4547C25.8438 44.0815 25.7693 43.6767 25.7693 43.2401C25.7693 42.7965 25.8438 42.3916 25.9926 42.0255C26.1483 41.6523 26.3614 41.3284 26.6321 41.0538C26.9095 40.7722 27.2309 40.5574 27.5963 40.4095C27.9685 40.2546 28.3744 40.1772 28.8143 40.1772C29.227 40.1772 29.6127 40.2441 29.9713 40.3779C30.33 40.5116 30.6581 40.7334 30.9559 41.0433L31.4228 40.5468C31.1047 40.1877 30.719 39.9202 30.2657 39.7441C29.8191 39.5681 29.3251 39.4801 28.7838 39.4801C28.2425 39.4801 27.7418 39.5752 27.2817 39.7653C26.8283 39.9483 26.4325 40.2089 26.0941 40.5468C25.7558 40.8848 25.4919 41.2827 25.3025 41.7403C25.1198 42.198 25.0284 42.6979 25.0284 43.2401C25.0284 43.7823 25.1198 44.2822 25.3025 44.7399C25.4919 45.1976 25.7524 45.5954 26.084 45.9334C26.4223 46.2714 26.8182 46.5354 27.2715 46.7255ZM116.474 46.7255C116.934 46.9086 117.435 47.0001 117.976 47.0001C118.47 47.0001 118.944 46.9227 119.397 46.7678C119.851 46.6058 120.247 46.3699 120.585 46.0601V43.2401H119.864V45.7267C119.642 45.897 119.405 46.0258 119.154 46.1129C118.795 46.2397 118.413 46.303 118.007 46.303C117.574 46.303 117.171 46.2291 116.799 46.0812C116.434 45.9263 116.112 45.7116 115.835 45.437C115.564 45.1553 115.351 44.8279 115.195 44.4547C115.046 44.0815 114.972 43.6767 114.972 43.2401C114.972 42.7965 115.046 42.3916 115.195 42.0255C115.351 41.6523 115.564 41.3284 115.835 41.0538C116.112 40.7722 116.434 40.5574 116.799 40.4095C117.171 40.2546 117.577 40.1772 118.017 40.1772C118.43 40.1772 118.815 40.2441 119.174 40.3779C119.533 40.5116 119.861 40.7334 120.159 41.0433L120.625 40.5468C120.307 40.1877 119.922 39.9202 119.468 39.7441C119.022 39.5681 118.528 39.4801 117.987 39.4801C117.445 39.4801 116.944 39.5752 116.484 39.7653C116.031 39.9483 115.635 40.2089 115.297 40.5468C114.959 40.8848 114.695 41.2827 114.505 41.7403C114.322 42.198 114.231 42.6979 114.231 43.2401C114.231 43.7823 114.322 44.2822 114.505 44.7399C114.695 45.1976 114.955 45.5954 115.287 45.9334C115.625 46.2714 116.021 46.5354 116.474 46.7255ZM162.156 47.0001C161.622 47.0001 161.128 46.9086 160.674 46.7255C160.221 46.5354 159.829 46.2714 159.497 45.9334C159.165 45.5954 158.905 45.1976 158.715 44.7399C158.533 44.2822 158.441 43.7823 158.441 43.2401C158.441 42.6979 158.533 42.198 158.715 41.7403C158.905 41.2827 159.165 40.8848 159.497 40.5468C159.835 40.2089 160.231 39.9483 160.685 39.7653C161.138 39.5752 161.632 39.4801 162.166 39.4801C162.681 39.4801 163.164 39.5716 163.618 39.7547C164.071 39.9307 164.453 40.1983 164.765 40.5574L164.288 41.0538C163.997 40.744 163.675 40.5222 163.323 40.3884C162.972 40.2476 162.593 40.1772 162.187 40.1772C161.76 40.1772 161.365 40.2546 160.999 40.4095C160.634 40.5574 160.316 40.7722 160.045 41.0538C159.774 41.3284 159.561 41.6523 159.406 42.0255C159.257 42.3916 159.182 42.7965 159.182 43.2401C159.182 43.6837 159.257 44.0921 159.406 44.4653C159.561 44.8314 159.774 45.1553 160.045 45.437C160.316 45.7116 160.634 45.9263 160.999 46.0812C161.365 46.2291 161.76 46.303 162.187 46.303C162.593 46.303 162.972 46.2326 163.323 46.0918C163.675 45.951 163.997 45.7257 164.288 45.4158L164.765 45.9123C164.453 46.2714 164.071 46.5424 163.618 46.7255C163.164 46.9086 162.677 47.0001 162.156 47.0001ZM175.018 46.9367V44.3827L172.176 39.5434H172.978L175.414 43.6905L177.85 39.5434H178.601L175.759 44.3827V46.9367H175.018ZM143.71 39.5434V46.9367H144.461V40.9415L149.028 46.9367H149.647V39.5434H148.907V45.5396L144.329 39.5434H143.71ZM130.567 46.2608H134.84V46.9367H129.816V39.5434H134.688V40.2194H130.567V42.8493H134.242V43.5147H130.567V46.2608ZM99.4426 46.9367L102.691 39.5434H103.431L106.679 46.9367H105.888L105.038 44.9617H101.074L100.224 46.9367H99.4426ZM104.766 44.3279L103.056 40.3516L101.346 44.3279H104.766ZM77.7364 39.5434V46.9367H82.4661V46.2608H78.4874V39.5434H77.7364ZM62.2199 46.9367L65.4678 39.5434H66.2088L69.4567 46.9367H68.665L67.8157 44.9617H63.8508L63.0015 46.9367H62.2199ZM67.5432 44.3279L65.8332 40.3516L64.1233 44.3279H67.5432ZM52.1608 40.2194V46.9367H52.9119V40.2194H55.4087V39.5434H49.6639V40.2194H52.1608ZM40.6119 46.9367V39.5434H41.3629V46.9367H40.6119ZM15.4898 46.9367V39.5434H16.2409V46.9367H15.4898ZM0 39.5444V46.9376H2.89267C3.65052 46.9376 4.31364 46.7827 4.88202 46.4729C5.45717 46.1561 5.90376 45.7195 6.22179 45.1633C6.53981 44.607 6.69883 43.9662 6.69883 43.241C6.69883 42.5158 6.53981 41.875 6.22179 41.3187C5.90376 40.7625 5.45717 40.3295 4.88202 40.0196C4.31364 39.7028 3.65052 39.5444 2.89267 39.5444H0ZM2.85208 46.2617H0.75108V40.2203H2.85208C3.48136 40.2203 4.02606 40.3506 4.48618 40.6111C4.95307 40.8646 5.31508 41.2166 5.57221 41.6673C5.82933 42.1179 5.95789 42.6425 5.95789 43.241C5.95789 43.8325 5.82933 44.357 5.57221 44.8147C5.31508 45.2653 4.95307 45.6209 4.48618 45.8815C4.02606 46.1349 3.48136 46.2617 2.85208 46.2617Z" fill="white"/>
<path d="M174.441 28.2002V4.43156H165.75V0.00012207H188.001V4.43156H179.311V28.2002H174.441Z" fill="white"/>
<path d="M140.215 28.2002V0.00012207H151.003C153.326 0.00012207 155.311 0.402981 156.959 1.2087C158.632 2.01441 159.918 3.16927 160.817 4.67328C161.717 6.17728 162.166 7.96328 162.166 10.0313C162.166 12.0993 161.717 13.8853 160.817 15.3893C159.918 16.8664 158.632 18.0079 156.959 18.8136C156.842 18.8689 156.724 18.9222 156.603 18.9735L162.616 28.2002H157.371L152.029 19.9554C151.695 19.9731 151.353 19.9819 151.003 19.9819H145.085V28.2002H140.215ZM145.085 15.6713H150.779C152.926 15.6713 154.537 15.1744 155.611 14.1807C156.71 13.187 157.259 11.8039 157.259 10.0313C157.259 8.23186 156.71 6.84871 155.611 5.88185C154.537 4.91499 152.926 4.43156 150.779 4.43156H145.085V15.6713Z" fill="white"/>
<path d="M106.574 28.2002L118.374 0.00012207H123.169L135.006 28.2002H129.911L127.305 21.6739L126.485 19.6193L125.664 17.5647L120.736 5.2232L115.825 17.5647H125.664L126.485 19.6193L127.305 21.6739H114.191L111.594 28.2002H106.574Z" fill="white"/>
<path d="M92.513 28.2002V4.43156H83.8225V0.00012207H106.073V4.43156H97.3826V28.2002H92.513Z" fill="white"/>
<path d="M70.3184 28.2002C68.2706 28.2002 66.3103 27.8999 64.4374 27.2994C62.5644 26.6727 61.0785 25.8763 59.9797 24.9102L61.6654 20.9543C62.7142 21.816 64.0128 22.5341 65.5611 23.1085C67.1094 23.683 68.6952 23.9702 70.3184 23.9702C71.6919 23.9702 72.8032 23.8135 73.6522 23.5002C74.5013 23.1868 75.1256 22.7691 75.5252 22.2468C75.9247 21.6985 76.1245 21.0849 76.1245 20.406C76.1245 19.5704 75.8373 18.9046 75.263 18.4085C74.6886 17.8863 73.9394 17.4816 73.0154 17.1943C72.1164 16.881 71.105 16.5938 69.9813 16.3327C68.8825 16.0716 67.7712 15.7713 66.6474 15.4318C65.5486 15.0663 64.5372 14.6093 63.6133 14.061C62.7142 13.4865 61.9775 12.7293 61.4032 11.7893C60.8288 10.8493 60.5416 9.6482 60.5416 8.18597C60.5416 6.69764 60.9162 5.33986 61.6654 4.11263C62.4395 2.85929 63.6008 1.86707 65.1491 1.13596C66.7223 0.378734 68.7077 0.00012207 71.105 0.00012207C72.6783 0.00012207 74.2391 0.209012 75.7874 0.626791C77.3357 1.04457 78.6842 1.64513 79.833 2.42846L78.2971 6.3843C77.1234 5.65319 75.9123 5.11791 74.6636 4.77847C73.415 4.41291 72.2163 4.23013 71.0676 4.23013C69.7191 4.23013 68.6203 4.39985 67.7712 4.7393C66.9471 5.07874 66.3353 5.52263 65.9357 6.07097C65.5611 6.6193 65.3738 7.24597 65.3738 7.95097C65.3738 8.78653 65.6485 9.46542 66.1979 9.98764C66.7723 10.4838 67.509 10.8754 68.408 11.1626C69.332 11.4499 70.3559 11.7371 71.4796 12.0243C72.6034 12.2854 73.7147 12.5857 74.8135 12.9252C75.9372 13.2646 76.9486 13.7085 77.8476 14.2568C78.7716 14.8052 79.5083 15.5493 80.0577 16.4893C80.6321 17.4293 80.9193 18.6174 80.9193 20.0535C80.9193 21.5157 80.5322 22.8735 79.758 24.1268C79.0089 25.3541 77.8476 26.3463 76.2744 27.1035C74.7011 27.8346 72.7158 28.2002 70.3184 28.2002Z" fill="white"/>
<path d="M28.4895 28.2002L40.2891 0.00012207H45.0838L56.9208 28.2002H51.8264L49.2202 21.6739L48.3997 19.6193L47.5792 17.5647L42.6508 5.2232L37.7405 17.5647H47.5792L48.3997 19.6193L49.2202 21.6739H36.1056L33.509 28.2002H28.4895Z" fill="white"/>
<path d="M0 28.2002V0.00012207H4.0081L18.4672 19.0927V0.00012207H23.2994V28.2002H19.2913L4.8322 9.10765V28.2002H0Z" fill="white"/>
<path d="M262.173 28.2002V9.46032V0.00012207H272.246C274.847 0.00012207 276.893 0.604409 278.382 1.81298C279.896 3.02156 280.652 4.80756 280.652 7.171C280.652 8.70186 280.321 9.991 279.659 11.0384C279.021 12.0859 278.122 12.8647 276.964 13.375C276.691 13.4975 276.408 13.6053 276.116 13.6983C276.904 13.8393 277.612 14.0538 278.24 14.3419C279.47 14.9059 280.404 15.725 281.042 16.7993C281.681 17.8736 282 19.203 282 20.7876C282 23.151 281.243 24.9773 279.73 26.2665C278.24 27.5556 275.982 28.2002 272.956 28.2002H262.173ZM263.379 26.9916H273.027C275.557 26.9916 277.484 26.4948 278.808 25.501C280.132 24.4805 280.794 22.8959 280.794 20.7473C280.794 18.5719 280.132 16.9873 278.808 15.9936C277.484 14.973 275.557 14.4627 273.027 14.4627H263.184L263.166 13.2944H272.282C274.552 13.2944 276.313 12.7842 277.566 11.7636C278.843 10.743 279.482 9.239 279.482 7.25157C279.482 5.26413 278.843 3.76013 277.566 2.73956C276.313 1.71898 274.552 1.2087 272.282 1.2087H263.379V9.46032H262.173V11.3774V13.2944H263.166L263.379 26.9916Z" fill="white"/>
<path d="M239.686 26.9513H255.257V28.2002H238.48V0.00012207H254.761V1.24898H239.686V9.41055H238.48V13.2542H253.164V14.503H239.686V26.9513Z" fill="white"/>
<path d="M205.877 28.2002L197.4 0.00012207H198.677L206.835 27.2736L207.118 28.2002L209.135 21.6162L208.546 19.6508L214.602 0.00012207H215.773L223.839 26.2808L224.417 28.2002L226.435 21.6389L225.834 19.6397L231.734 0.00012207H232.939L226.435 21.6389L224.417 28.2002H223.257L215.028 1.45041H215.312L209.135 21.6162L207.118 28.2002H205.877Z" fill="white"/>
</svg>
