<svg width="673" height="184" viewBox="0 0 673 184" fill="none" xmlns="http://www.w3.org/2000/svg">
<path d="M0 180.359V3.64116H34.2121L114.363 123.193C116.217 126.025 118.03 129.18 119.803 132.66C121.576 136.058 122.986 138.89 124.034 141.156H125.243C124.921 138.566 124.639 135.168 124.397 130.96C124.155 126.672 124.034 123.112 124.034 120.28V3.64116H151.718V180.359H117.506L36.1464 59.5937C34.2927 56.9235 32.6406 54.2938 31.1899 51.7045C29.8198 49.1152 28.6915 46.6878 27.8049 44.4222H26.4751C26.7975 47.0114 27.0393 49.8839 27.2005 53.0396C27.4422 56.1143 27.5631 59.0677 27.5631 61.8997V180.359H0Z" fill="white"/>
<path d="M172.995 180.359L243.112 2.79156H275.631L346.111 180.359H312.745L265.114 52.9182C263.744 49.358 262.495 45.9191 261.366 42.6016C260.238 39.2841 259.271 36.007 258.465 32.7704H257.135C256.329 36.0879 255.362 39.4055 254.234 42.723C253.186 45.9595 251.977 49.358 250.607 52.9182L202.371 180.359H172.995ZM204.548 138L213.252 114.575L303.678 114.697L312.503 138H204.548Z" fill="white"/>
<path d="M357.233 130.596V128.533H388.544V130.475C388.544 140.266 392.251 147.669 399.666 152.686C407.161 157.703 417.839 160.211 431.702 160.211C445.403 160.211 455.799 157.743 462.891 152.807C469.984 147.872 473.53 141.52 473.53 133.752C473.61 126.389 470.548 120.603 464.342 116.396C458.217 112.107 444.033 107.495 421.789 102.559C399.545 97.6236 383.829 91.2313 374.641 83.3826C365.534 75.4529 360.98 64.4485 360.98 50.3694C360.9 35.7238 366.985 23.6675 379.235 14.2005C391.485 4.73351 408.45 0 430.13 0C451.81 0 468.976 5.13808 481.63 15.4142C494.363 25.6904 500.73 38.1513 500.73 52.7968V54.7388H469.782V52.7968C469.621 44.3008 466.276 37.3826 459.748 32.0422C453.301 26.6209 443.388 23.9103 430.009 23.9103C416.711 23.9103 407 26.1354 400.874 30.5858C394.749 34.9551 391.687 40.4978 391.687 47.2137C391.687 54.496 394.709 60.1196 400.754 64.0844C406.879 68.0492 419.774 72.2164 439.439 76.5857C461.441 81.5215 477.761 88.197 488.399 96.6121C499.038 105.027 504.357 117.003 504.357 132.538C504.357 147.831 497.789 160.252 484.652 169.799C471.596 179.266 453.865 184 431.46 184C409.055 184 391.042 179.266 377.422 169.799C363.882 160.332 357.152 147.265 357.233 130.596Z" fill="white"/>
<path d="M518.38 27.3087V3.64116H673V27.3087H611.225V180.359H580.277V27.3087H518.38Z" fill="white"/>
</svg>
