<svg width="568" height="177" viewBox="0 0 568 177" fill="none" xmlns="http://www.w3.org/2000/svg">
<g clip-path="url(#clip0_156_61)">
<path d="M46.8391 177L0 0H31.7102L63.4204 128.727C64.1466 131.47 64.7518 134.252 65.2359 137.075C65.72 139.898 66.1638 142.681 66.5672 145.423H67.8986C68.2213 142.681 68.5844 139.898 68.9879 137.075C69.3913 134.252 69.9561 131.47 70.6823 128.727L103.361 0H138.944L172.712 128.485C173.438 131.308 174.003 134.131 174.406 136.954C174.81 139.777 175.173 142.56 175.495 145.302H176.948C177.271 142.479 177.634 139.697 178.037 136.954C178.441 134.131 178.965 131.308 179.61 128.485L210.716 0H238.795L191.714 177H157.22L123.573 49.6036C122.847 46.7806 122.161 43.9173 121.515 41.0137C120.951 38.0294 120.507 35.1661 120.184 32.4238H118.732C118.328 35.1661 117.844 37.9891 117.279 40.8927C116.795 43.7157 116.15 46.5386 115.343 49.3616L81.3331 176.758L46.8391 177Z" fill="white"/>
<path d="M266.995 176.153V0H394.441V23.4709H298.1V73.6794H382.217V97.0294H298.1V152.803H395.772V176.153H266.995Z" fill="white"/>
<path d="M427.483 176.153V0H495.623C516.602 0 533.022 3.71018 544.883 11.1306C556.825 18.5509 562.796 30.2864 562.796 46.337C562.796 56.0964 560.173 64.0813 554.929 70.2919C549.765 76.5024 543.31 80.7772 535.564 83.1162V83.6001C545.085 86.0198 552.871 90.7785 558.923 97.8763C564.974 104.974 568 114.249 568 125.703C568 141.834 561.747 154.295 549.24 163.087C536.734 171.798 520.193 176.153 499.617 176.153H427.483ZM458.225 153.771H499.133C512.285 153.771 521.887 151.19 527.939 146.028C534.071 140.785 537.137 133.607 537.137 124.493C537.137 115.379 534.071 108.241 527.939 103.079C521.806 97.9166 512.245 95.3356 499.254 95.3356H458.225V153.771ZM458.225 73.6794H495.26C508.251 73.6794 517.611 71.4614 523.339 67.0253C529.068 62.5085 531.933 56.0964 531.933 47.7888C531.933 39.5619 529.068 33.2707 523.339 28.9152C517.611 24.5598 508.251 22.3821 495.26 22.3821H458.225V73.6794Z" fill="white"/>
</g>
<defs>
<clipPath id="clip0_156_61">
<rect width="568" height="177" fill="white"/>
</clipPath>
</defs>
</svg>
